<svg xmlns="http://www.w3.org/2000/svg" width="100" height="130" viewBox="0 0 100 130"><rect width="100%" height="100%" fill="#e0e0e0"/><path fill="#9e9e9e" d="M22.65 65.035h1.71q.63 0 1.09-.16.47-.16.78-.45t.46-.71q.16-.42.16-.94 0-.5-.16-.9-.15-.39-.45-.68-.31-.28-.78-.42-.47-.15-1.1-.15h-1.71zm-2.29-6.18h4q1.23 0 2.13.29t1.49.81q.58.51.87 1.24.28.72.28 1.58 0 .89-.29 1.63-.3.75-.9 1.28-.59.54-1.49.84-.89.29-2.09.29h-1.71v4.33h-2.29zm18.59 0h2.3v12.29h-2.3v-5.37h-5.77v5.37h-2.3v-12.29h2.3v5.29h5.77zm16.75 6.14q0 1.36-.44 2.51-.45 1.15-1.26 1.99-.82.84-1.97 1.31-1.14.48-2.55.48-1.39 0-2.54-.48-1.15-.47-1.97-1.31t-1.27-1.99-.45-2.51q0-1.35.45-2.5t1.27-1.99 1.97-1.32q1.15-.47 2.54-.47.94 0 1.76.22.83.22 1.52.61.68.4 1.23.96.55.57.93 1.26.39.7.59 1.52.19.81.19 1.71m-2.33 0q0-1.01-.27-1.81-.28-.8-.78-1.36-.5-.57-1.22-.86-.72-.3-1.62-.3t-1.62.3q-.71.29-1.22.86-.51.56-.78 1.36t-.27 1.81q0 1.02.27 1.82t.78 1.36 1.22.85q.72.3 1.62.3t1.62-.3q.72-.29 1.22-.85t.78-1.36q.27-.8.27-1.82m12.93-6.14v1.88h-3.7v10.41h-2.29v-10.41h-3.7v-1.88zm13.34 6.14q0 1.36-.45 2.51-.44 1.15-1.26 1.99-.81.84-1.96 1.31-1.15.48-2.55.48t-2.54-.48q-1.15-.47-1.97-1.31t-1.27-1.99-.45-2.51q0-1.35.45-2.5t1.27-1.99 1.97-1.32q1.14-.47 2.54-.47.93 0 1.76.22.82.22 1.51.61.69.4 1.24.96.55.57.93 1.26.38.7.58 1.52.2.81.2 1.71m-2.34 0q0-1.01-.27-1.81t-.77-1.36q-.5-.57-1.22-.86-.72-.3-1.62-.3t-1.62.3q-.72.29-1.22.86-.51.56-.78 1.36t-.27 1.81q0 1.02.27 1.82t.78 1.36q.5.56 1.22.85.72.3 1.62.3t1.62-.3q.72-.29 1.22-.85t.77-1.36.27-1.82"/></svg>